<?xml version="1.0" encoding="utf-8"?>
<!-- Generator: Adobe Illustrator 27.0.1, SVG Export Plug-In . SVG Version: 6.00 Build 0)  -->
<svg version="1.1" id="Layer_1" xmlns="http://www.w3.org/2000/svg" xmlns:xlink="http://www.w3.org/1999/xlink" x="0px" y="0px"
	 viewBox="0 0 1000 208" style="enable-background:new 0 0 1000 208;" xml:space="preserve">
<style type="text/css">
	.st0{enable-background:new    ;}
	.st1{fill:#2C2754;}
	.st2{fill:url(#SVGID_1_);}
	.st3{fill:#2A98B1;}
	.st4{fill:url(#SVGID_00000161615388417117130330000005796607001662326692_);}
	.st5{fill:url(#SVGID_00000047024459141216799920000009997467845294987699_);}
	.st6{fill:url(#SVGID_00000073002124012240737800000008109944396747916950_);}
	.st7{fill:url(#SVGID_00000163060646830301822740000016758115464806521216_);}
	.st8{fill:url(#SVGID_00000036240194366112993190000018244794750042449820_);}
	.st9{fill:url(#SVGID_00000081619334902893112960000002274495527427884206_);}
	.st10{fill:url(#SVGID_00000183219208535644652150000004962791144175369091_);}
	.st11{fill:url(#SVGID_00000167357666023297699020000017939667137416461216_);}
	.st12{fill:url(#SVGID_00000014597160821137194260000007240883529618206131_);}
	.st13{fill:url(#SVGID_00000033337654016275274400000014056729322511682698_);}
	.st14{fill:url(#SVGID_00000150811124752494129240000013637761374484612995_);}
	.st15{fill:url(#SVGID_00000153675072149894342480000009872358252792283275_);}
	.st16{fill:url(#SVGID_00000124154061803416280450000008781860322749219460_);}
	.st17{fill:url(#SVGID_00000071525732937921189590000009096129729685336224_);}
	.st18{fill:url(#SVGID_00000103982460541028891690000007812211298728107677_);}
</style>
<g>
	<g>
		<g class="st0">
			<path class="st1" d="M20.8,183.6v-150h90l10,10l10,10l10,10l-10,10l-10,10l-10,10l-10,10h20l10,10l10,10v60h-30v-50h-40l-10-10
				l-10-10l10-10l10-10l10-10l10-10l10-10h-50v120H20.8z"/>
			<path class="st1" d="M170.8,163.6l-10-10l-10-10v-80l10-10l10-10h70l10,10l10,10v80l-10,10l-10,10H170.8z M230.8,133.6v-60h-50
				v60H230.8z"/>
			<path class="st1" d="M270.8,163.6v-120h80l10,10l10,10l5,5l-5,5l-10,10l-10,10h20l10,10v40l-10,10l-10,10H270.8z M350.8,133.6
				v-20h-40l-10-10l10-10l10-10l10-10h-30v60H350.8z"/>
			<path class="st1" d="M410.8,163.6l-10-10l-10-10v-80l10-10l10-10h70l10,10l10,10v80l-10,10l-10,10H410.8z M470.8,133.6v-60h-50
				v60H470.8z"/>
			<path class="st1" d="M530.8,183.6l-10-10l-10-10v-110l10-10l10-10h104.7l-4.7,5l-5,5h-0.3l-4.7,5l-5,5h-0.3l-4.7,5l-5,5h-65v90
				h90v30H530.8z M635.5,33.6h0.3H635.5z"/>
			<path class="st1" d="M635.8,163.6v-120h80l10,10l10,10l5,5l-5,5l-10,10l-10,10h20l10,10v60h-30v-50h-40l-10-10l10-10l10-10l10-10
				h-30v90H635.8z"/>
			<path class="st1" d="M775.8,163.6l-10-10l-10-10v-80l10-10l10-10h70l10,10l10,10v80l-10,10l-10,10H775.8z M835.8,133.6v-60h-50
				v60H835.8z"/>
			<path class="st1" d="M875.8,163.6v-120h80l10,10l10,10l5,5l-5,5l-10,10l-10,10l-10,10l-10,10l-10,10l-10-10l-10-10l10-10l10-10
				l10-10h-30v90H875.8z"/>
		</g>
		<g class="st0">
			<path class="st1" d="M20.8,183.6v-150h90l10,10l10,10l10,10l-10,10l-10,10l-10,10l-10,10h20l10,10l10,10v60h-30v-50h-40l-10-10
				l-10-10l10-10l10-10l10-10l10-10l10-10h-50v120H20.8z"/>
			<path class="st1" d="M170.8,163.6l-10-10l-10-10v-80l10-10l10-10h70l10,10l10,10v80l-10,10l-10,10H170.8z M230.8,133.6v-60h-50
				v60H230.8z"/>
			<path class="st1" d="M270.8,163.6v-120h80l10,10l10,10l5,5l-5,5l-10,10l-10,10h20l10,10v40l-10,10l-10,10H270.8z M350.8,133.6
				v-20h-40l-10-10l10-10l10-10l10-10h-30v60H350.8z"/>
			<path class="st1" d="M410.8,163.6l-10-10l-10-10v-80l10-10l10-10h70l10,10l10,10v80l-10,10l-10,10H410.8z M470.8,133.6v-60h-50
				v60H470.8z"/>
			<path class="st1" d="M530.8,183.6l-10-10l-10-10v-110l10-10l10-10h104.7l-4.7,5l-5,5h-0.3l-4.7,5l-5,5h-0.3l-4.7,5l-5,5h-65v90
				h90v30H530.8z M635.5,33.6h0.3H635.5z"/>
			<path class="st1" d="M635.8,163.6v-120h80l10,10l10,10l5,5l-5,5l-10,10l-10,10h20l10,10v60h-30v-50h-40l-10-10l10-10l10-10l10-10
				h-30v90H635.8z"/>
			<path class="st1" d="M775.8,163.6l-10-10l-10-10v-80l10-10l10-10h70l10,10l10,10v80l-10,10l-10,10H775.8z M835.8,133.6v-60h-50
				v60H835.8z"/>
			<path class="st1" d="M875.8,163.6v-120h80l10,10l10,10l5,5l-5,5l-10,10l-10,10l-10,10l-10,10l-10,10l-10-10l-10-10l10-10l10-10
				l10-10h-30v90H875.8z"/>
		</g>
	</g>
</g>
<g>
	<g class="st0">
		<g>
			<linearGradient id="SVGID_1_" gradientUnits="userSpaceOnUse" x1="86.0047" y1="-20.1451" x2="86.0047" y2="222.3965">
				<stop  offset="0.2737" style="stop-color:#FDFBE9"/>
				<stop  offset="0.2868" style="stop-color:#F3F7E6"/>
				<stop  offset="0.3367" style="stop-color:#D1E8DC"/>
				<stop  offset="0.3876" style="stop-color:#B6DDD3"/>
				<stop  offset="0.4393" style="stop-color:#A3D5CE"/>
				<stop  offset="0.4925" style="stop-color:#98D1CA"/>
				<stop  offset="0.5491" style="stop-color:#94CFC9"/>
				<stop  offset="1" style="stop-color:#4158A3"/>
			</linearGradient>
			<path class="st2" d="M26,174.9v-150h90l10,10l10,10l10,10l-10,10l-10,10l-10,10l-10,10h20l10,10l10,10v60h-30v-50H76l-10-10
				l-10-10l10-10l10-10l10-10l10-10l10-10H56v120H26z"/>
			<path class="st3" d="M147,175.9h-32v-50H75.6L57,107.3v68.6H25v-152h91.4l31,31l-39,39h18l20.6,20.6V175.9z M117,173.9h28v-58.6
				l-19.4-19.4h-22l41-41l-29-29H27v148h28v-68.6l-0.4-0.4l0.4-0.4V53.9h53.4l-51,51l19,19H117V173.9z M57,55.9v46.6l46.6-46.6H57z"
				/>
		</g>
		<g>
			
				<linearGradient id="SVGID_00000020392762417426888540000013826880915228714141_" gradientUnits="userSpaceOnUse" x1="211.0135" y1="-20.1451" x2="211.0135" y2="222.3965">
				<stop  offset="0.2737" style="stop-color:#FDFBE9"/>
				<stop  offset="0.2868" style="stop-color:#F3F7E6"/>
				<stop  offset="0.3367" style="stop-color:#D1E8DC"/>
				<stop  offset="0.3876" style="stop-color:#B6DDD3"/>
				<stop  offset="0.4393" style="stop-color:#A3D5CE"/>
				<stop  offset="0.4925" style="stop-color:#98D1CA"/>
				<stop  offset="0.5491" style="stop-color:#94CFC9"/>
				<stop  offset="1" style="stop-color:#4158A3"/>
			</linearGradient>
			<path style="fill:url(#SVGID_00000020392762417426888540000013826880915228714141_);" d="M176,154.9l-10-10l-10-10v-80l10-10
				l10-10h70l10,10l10,10v80l-10,10l-10,10H176z M236,124.9v-60h-50v60H236z"/>
			<path class="st3" d="M246.4,155.9h-70.8L155,135.3V54.5l20.6-20.6h70.8L267,54.5v80.8L246.4,155.9z M176.4,153.9h69.2l19.4-19.4
				V55.3l-19.4-19.4h-69.2L157,55.3v79.2L176.4,153.9z M237,125.9h-52v-62h52V125.9z M187,123.9h48v-58h-48V123.9z"/>
		</g>
		<g>
			
				<linearGradient id="SVGID_00000072280988639267581530000011505938850134565045_" gradientUnits="userSpaceOnUse" x1="331.0226" y1="-20.1451" x2="331.0226" y2="222.3965">
				<stop  offset="0.2737" style="stop-color:#FDFBE9"/>
				<stop  offset="0.2868" style="stop-color:#F3F7E6"/>
				<stop  offset="0.3367" style="stop-color:#D1E8DC"/>
				<stop  offset="0.3876" style="stop-color:#B6DDD3"/>
				<stop  offset="0.4393" style="stop-color:#A3D5CE"/>
				<stop  offset="0.4925" style="stop-color:#98D1CA"/>
				<stop  offset="0.5491" style="stop-color:#94CFC9"/>
				<stop  offset="1" style="stop-color:#4158A3"/>
			</linearGradient>
			<path style="fill:url(#SVGID_00000072280988639267581530000011505938850134565045_);" d="M276,154.9v-120h80l10,10l10,10l5,5
				l-5,5l-10,10l-10,10h20l10,10v40l-10,10l-10,10H276z M356,124.9v-20h-40l-10-10l10-10l10-10l10-10h-30v60H356z"/>
			<path class="st3" d="M366.4,155.9H275v-122h81.4l26,26l-24,24h18L387,94.5v40.8L366.4,155.9z M277,153.9h88.6l19.4-19.4V95.3
				l-9.4-9.4h-22l26-26l-24-24H277V153.9z M357,125.9h-52V95.3l-0.4-0.4l0.4-0.4V63.9h33.4l-31,31l9,9H357V125.9z M307,123.9h48v-18
				h-39.4l-8.6-8.6V123.9z M307,65.9v26.6l26.6-26.6H307z"/>
		</g>
		<g>
			
				<linearGradient id="SVGID_00000008113127089076056430000005845104118530005379_" gradientUnits="userSpaceOnUse" x1="451.0307" y1="-20.1451" x2="451.0307" y2="222.3965">
				<stop  offset="0.2737" style="stop-color:#FDFBE9"/>
				<stop  offset="0.2868" style="stop-color:#F3F7E6"/>
				<stop  offset="0.3367" style="stop-color:#D1E8DC"/>
				<stop  offset="0.3876" style="stop-color:#B6DDD3"/>
				<stop  offset="0.4393" style="stop-color:#A3D5CE"/>
				<stop  offset="0.4925" style="stop-color:#98D1CA"/>
				<stop  offset="0.5491" style="stop-color:#94CFC9"/>
				<stop  offset="1" style="stop-color:#4158A3"/>
			</linearGradient>
			<path style="fill:url(#SVGID_00000008113127089076056430000005845104118530005379_);" d="M416,154.9l-10-10l-10-10v-80l10-10
				l10-10h70l10,10l10,10v80l-10,10l-10,10H416z M476,124.9v-60h-50v60H476z"/>
			<path class="st3" d="M486.4,155.9h-70.8L395,135.3V54.5l20.6-20.6h70.8L507,54.5v80.8L486.4,155.9z M416.4,153.9h69.2l19.4-19.4
				V55.3l-19.4-19.4h-69.2L397,55.3v79.2L416.4,153.9z M477,125.9h-52v-62h52V125.9z M427,123.9h48v-58h-48V123.9z"/>
		</g>
		<g>
			
				<linearGradient id="SVGID_00000152228459283217042090000006632161833235363204_" gradientUnits="userSpaceOnUse" x1="578.5403" y1="-20.1451" x2="578.5403" y2="222.3965">
				<stop  offset="0.2737" style="stop-color:#FDFBE9"/>
				<stop  offset="0.2868" style="stop-color:#F3F7E6"/>
				<stop  offset="0.3367" style="stop-color:#D1E8DC"/>
				<stop  offset="0.3876" style="stop-color:#B6DDD3"/>
				<stop  offset="0.4393" style="stop-color:#A3D5CE"/>
				<stop  offset="0.4925" style="stop-color:#98D1CA"/>
				<stop  offset="0.5491" style="stop-color:#94CFC9"/>
				<stop  offset="1" style="stop-color:#4158A3"/>
			</linearGradient>
			<path style="fill:url(#SVGID_00000152228459283217042090000006632161833235363204_);" d="M536,174.9l-10-10l-10-10v-110l10-10
				l10-10h104.7l-4.7,5l-5,5h-0.3l-4.7,5l-5,5h-0.3l-4.7,5l-5,5h-65v90h90v30H536z M640.7,24.9h0.3H640.7z"/>
			<path class="st3" d="M637,175.9H535.6L515,155.3V44.5l20.6-20.6H643l-6.3,6.7l-5.3,5.3h-0.3l-4.4,4.7l-5.3,5.3h-0.3l-4.4,4.7
				l-5.3,5.3H547v88h90V175.9z M536.5,173.9H635v-28h-90v-92h65.6l4.7-4.7l5-5.3h0.3l4.7-4.7l5-5.3h0.3l4.7-4.7l3.1-3.3h-102
				L517,45.3v109.2L536.5,173.9z"/>
		</g>
		<g>
			
				<linearGradient id="SVGID_00000182523950431693984500000013267609205254047647_" gradientUnits="userSpaceOnUse" x1="696.0494" y1="-20.1451" x2="696.0494" y2="222.3965">
				<stop  offset="0.2737" style="stop-color:#FDFBE9"/>
				<stop  offset="0.2868" style="stop-color:#F3F7E6"/>
				<stop  offset="0.3367" style="stop-color:#D1E8DC"/>
				<stop  offset="0.3876" style="stop-color:#B6DDD3"/>
				<stop  offset="0.4393" style="stop-color:#A3D5CE"/>
				<stop  offset="0.4925" style="stop-color:#98D1CA"/>
				<stop  offset="0.5491" style="stop-color:#94CFC9"/>
				<stop  offset="1" style="stop-color:#4158A3"/>
			</linearGradient>
			<path style="fill:url(#SVGID_00000182523950431693984500000013267609205254047647_);" d="M641,154.9v-120h80l10,10l10,10l5,5
				l-5,5l-10,10l-10,10h20l10,10v60h-30v-50h-40l-10-10l10-10l10-10l10-10h-30v90H641z"/>
			<path class="st3" d="M752.1,155.9h-32v-50h-39.4l-8.6-8.6v58.6h-32v-122h81.4l26,26l-24,24h18l10.6,10.6V155.9z M722.1,153.9h28
				V95.3l-9.4-9.4h-22l26-26l-24-24H642v118h28V95.3l-0.4-0.4l0.4-0.4V63.9h33.4l-31,31l9,9h40.6V153.9z M672,65.9v26.6l26.6-26.6
				H672z"/>
		</g>
		<g>
			
				<linearGradient id="SVGID_00000147210943941168736620000007678701473490553258_" gradientUnits="userSpaceOnUse" x1="816.0576" y1="-20.1451" x2="816.0576" y2="222.3965">
				<stop  offset="0.2737" style="stop-color:#FDFBE9"/>
				<stop  offset="0.2868" style="stop-color:#F3F7E6"/>
				<stop  offset="0.3367" style="stop-color:#D1E8DC"/>
				<stop  offset="0.3876" style="stop-color:#B6DDD3"/>
				<stop  offset="0.4393" style="stop-color:#A3D5CE"/>
				<stop  offset="0.4925" style="stop-color:#98D1CA"/>
				<stop  offset="0.5491" style="stop-color:#94CFC9"/>
				<stop  offset="1" style="stop-color:#4158A3"/>
			</linearGradient>
			<path style="fill:url(#SVGID_00000147210943941168736620000007678701473490553258_);" d="M781.1,154.9l-10-10l-10-10v-80l10-10
				l10-10h70l10,10l10,10v80l-10,10l-10,10H781.1z M841.1,124.9v-60h-50v60H841.1z"/>
			<path class="st3" d="M851.5,155.9h-70.8l-20.6-20.6V54.5l20.6-20.6h70.8l20.6,20.6v80.8L851.5,155.9z M781.5,153.9h69.2
				l19.4-19.4V55.3l-19.4-19.4h-69.2l-19.4,19.4v79.2L781.5,153.9z M842.1,125.9h-52v-62h52V125.9z M792.1,123.9h48v-58h-48V123.9z"
				/>
		</g>
		<g>
			
				<linearGradient id="SVGID_00000120559943875315720150000004331007064397396616_" gradientUnits="userSpaceOnUse" x1="933.5667" y1="-20.1451" x2="933.5667" y2="222.3965">
				<stop  offset="0.2737" style="stop-color:#FDFBE9"/>
				<stop  offset="0.2868" style="stop-color:#F3F7E6"/>
				<stop  offset="0.3367" style="stop-color:#D1E8DC"/>
				<stop  offset="0.3876" style="stop-color:#B6DDD3"/>
				<stop  offset="0.4393" style="stop-color:#A3D5CE"/>
				<stop  offset="0.4925" style="stop-color:#98D1CA"/>
				<stop  offset="0.5491" style="stop-color:#94CFC9"/>
				<stop  offset="1" style="stop-color:#4158A3"/>
			</linearGradient>
			<path style="fill:url(#SVGID_00000120559943875315720150000004331007064397396616_);" d="M881.1,154.9v-120h80l10,10l10,10l5,5
				l-5,5l-10,10l-10,10l-10,10l-10,10l-10,10l-10-10l-10-10l10-10l10-10l10-10h-30v90H881.1z"/>
			<path class="st3" d="M912.1,155.9h-32v-122h81.4l26,26l-56.4,56.4l-19-19V155.9z M882.1,153.9h28V95.3l-0.4-0.4l0.4-0.4V63.9
				h33.4l-31,31l18.6,18.6l53.6-53.6l-24-24h-78.6V153.9z M912.1,65.9v26.6l26.6-26.6H912.1z"/>
		</g>
	</g>
	<g class="st0">
		<g>
			
				<linearGradient id="SVGID_00000108999356009942009980000001906227840076616877_" gradientUnits="userSpaceOnUse" x1="86.0047" y1="-20.1451" x2="86.0047" y2="222.3965">
				<stop  offset="0.2737" style="stop-color:#FDFBE9"/>
				<stop  offset="0.2868" style="stop-color:#F3F7E6"/>
				<stop  offset="0.3367" style="stop-color:#D1E8DC"/>
				<stop  offset="0.3876" style="stop-color:#B6DDD3"/>
				<stop  offset="0.4393" style="stop-color:#A3D5CE"/>
				<stop  offset="0.4925" style="stop-color:#98D1CA"/>
				<stop  offset="0.5491" style="stop-color:#94CFC9"/>
				<stop  offset="1" style="stop-color:#4158A3"/>
			</linearGradient>
			<path style="fill:url(#SVGID_00000108999356009942009980000001906227840076616877_);" d="M26,174.9v-150h90l10,10l10,10l10,10
				l-10,10l-10,10l-10,10l-10,10h20l10,10l10,10v60h-30v-50H76l-10-10l-10-10l10-10l10-10l10-10l10-10l10-10H56v120H26z"/>
			<path class="st3" d="M147,175.9h-32v-50H75.6L57,107.3v68.6H25v-152h91.4l31,31l-39,39h18l20.6,20.6V175.9z M117,173.9h28v-58.6
				l-19.4-19.4h-22l41-41l-29-29H27v148h28v-68.6l-0.4-0.4l0.4-0.4V53.9h53.4l-51,51l19,19H117V173.9z M57,55.9v46.6l46.6-46.6H57z"
				/>
		</g>
		<g>
			
				<linearGradient id="SVGID_00000128485406792456654710000014187103331138846902_" gradientUnits="userSpaceOnUse" x1="211.0135" y1="-20.1451" x2="211.0135" y2="222.3965">
				<stop  offset="0.2737" style="stop-color:#FDFBE9"/>
				<stop  offset="0.2868" style="stop-color:#F3F7E6"/>
				<stop  offset="0.3367" style="stop-color:#D1E8DC"/>
				<stop  offset="0.3876" style="stop-color:#B6DDD3"/>
				<stop  offset="0.4393" style="stop-color:#A3D5CE"/>
				<stop  offset="0.4925" style="stop-color:#98D1CA"/>
				<stop  offset="0.5491" style="stop-color:#94CFC9"/>
				<stop  offset="1" style="stop-color:#4158A3"/>
			</linearGradient>
			<path style="fill:url(#SVGID_00000128485406792456654710000014187103331138846902_);" d="M176,154.9l-10-10l-10-10v-80l10-10
				l10-10h70l10,10l10,10v80l-10,10l-10,10H176z M236,124.9v-60h-50v60H236z"/>
			<path class="st3" d="M246.4,155.9h-70.8L155,135.3V54.5l20.6-20.6h70.8L267,54.5v80.8L246.4,155.9z M176.4,153.9h69.2l19.4-19.4
				V55.3l-19.4-19.4h-69.2L157,55.3v79.2L176.4,153.9z M237,125.9h-52v-62h52V125.9z M187,123.9h48v-58h-48V123.9z"/>
		</g>
		<g>
			
				<linearGradient id="SVGID_00000007408510572465682060000014156255335515325877_" gradientUnits="userSpaceOnUse" x1="331.0226" y1="-20.1451" x2="331.0226" y2="222.3965">
				<stop  offset="0.2737" style="stop-color:#FDFBE9"/>
				<stop  offset="0.2868" style="stop-color:#F3F7E6"/>
				<stop  offset="0.3367" style="stop-color:#D1E8DC"/>
				<stop  offset="0.3876" style="stop-color:#B6DDD3"/>
				<stop  offset="0.4393" style="stop-color:#A3D5CE"/>
				<stop  offset="0.4925" style="stop-color:#98D1CA"/>
				<stop  offset="0.5491" style="stop-color:#94CFC9"/>
				<stop  offset="1" style="stop-color:#4158A3"/>
			</linearGradient>
			<path style="fill:url(#SVGID_00000007408510572465682060000014156255335515325877_);" d="M276,154.9v-120h80l10,10l10,10l5,5
				l-5,5l-10,10l-10,10h20l10,10v40l-10,10l-10,10H276z M356,124.9v-20h-40l-10-10l10-10l10-10l10-10h-30v60H356z"/>
			<path class="st3" d="M366.4,155.9H275v-122h81.4l26,26l-24,24h18L387,94.5v40.8L366.4,155.9z M277,153.9h88.6l19.4-19.4V95.3
				l-9.4-9.4h-22l26-26l-24-24H277V153.9z M357,125.9h-52V95.3l-0.4-0.4l0.4-0.4V63.9h33.4l-31,31l9,9H357V125.9z M307,123.9h48v-18
				h-39.4l-8.6-8.6V123.9z M307,65.9v26.6l26.6-26.6H307z"/>
		</g>
		<g>
			
				<linearGradient id="SVGID_00000176017738401861532060000006122717777041589925_" gradientUnits="userSpaceOnUse" x1="451.0307" y1="-20.1451" x2="451.0307" y2="222.3965">
				<stop  offset="0.2737" style="stop-color:#FDFBE9"/>
				<stop  offset="0.2868" style="stop-color:#F3F7E6"/>
				<stop  offset="0.3367" style="stop-color:#D1E8DC"/>
				<stop  offset="0.3876" style="stop-color:#B6DDD3"/>
				<stop  offset="0.4393" style="stop-color:#A3D5CE"/>
				<stop  offset="0.4925" style="stop-color:#98D1CA"/>
				<stop  offset="0.5491" style="stop-color:#94CFC9"/>
				<stop  offset="1" style="stop-color:#4158A3"/>
			</linearGradient>
			<path style="fill:url(#SVGID_00000176017738401861532060000006122717777041589925_);" d="M416,154.9l-10-10l-10-10v-80l10-10
				l10-10h70l10,10l10,10v80l-10,10l-10,10H416z M476,124.9v-60h-50v60H476z"/>
			<path class="st3" d="M486.4,155.9h-70.8L395,135.3V54.5l20.6-20.6h70.8L507,54.5v80.8L486.4,155.9z M416.4,153.9h69.2l19.4-19.4
				V55.3l-19.4-19.4h-69.2L397,55.3v79.2L416.4,153.9z M477,125.9h-52v-62h52V125.9z M427,123.9h48v-58h-48V123.9z"/>
		</g>
		<g>
			
				<linearGradient id="SVGID_00000098910745621920610850000006536207728031711153_" gradientUnits="userSpaceOnUse" x1="578.5403" y1="-20.1451" x2="578.5403" y2="222.3965">
				<stop  offset="0.2737" style="stop-color:#FDFBE9"/>
				<stop  offset="0.2868" style="stop-color:#F3F7E6"/>
				<stop  offset="0.3367" style="stop-color:#D1E8DC"/>
				<stop  offset="0.3876" style="stop-color:#B6DDD3"/>
				<stop  offset="0.4393" style="stop-color:#A3D5CE"/>
				<stop  offset="0.4925" style="stop-color:#98D1CA"/>
				<stop  offset="0.5491" style="stop-color:#94CFC9"/>
				<stop  offset="1" style="stop-color:#4158A3"/>
			</linearGradient>
			<path style="fill:url(#SVGID_00000098910745621920610850000006536207728031711153_);" d="M536,174.9l-10-10l-10-10v-110l10-10
				l10-10h104.7l-4.7,5l-5,5h-0.3l-4.7,5l-5,5h-0.3l-4.7,5l-5,5h-65v90h90v30H536z M640.7,24.9h0.3H640.7z"/>
			<path class="st3" d="M637,175.9H535.6L515,155.3V44.5l20.6-20.6H643l-6.3,6.7l-5.3,5.3h-0.3l-4.4,4.7l-5.3,5.3h-0.3l-4.4,4.7
				l-5.3,5.3H547v88h90V175.9z M536.5,173.9H635v-28h-90v-92h65.6l4.7-4.7l5-5.3h0.3l4.7-4.7l5-5.3h0.3l4.7-4.7l3.1-3.3h-102
				L517,45.3v109.2L536.5,173.9z"/>
		</g>
		<g>
			
				<linearGradient id="SVGID_00000166662537823265021680000006315936271519707068_" gradientUnits="userSpaceOnUse" x1="696.0494" y1="-20.1451" x2="696.0494" y2="222.3965">
				<stop  offset="0.2737" style="stop-color:#FDFBE9"/>
				<stop  offset="0.2868" style="stop-color:#F3F7E6"/>
				<stop  offset="0.3367" style="stop-color:#D1E8DC"/>
				<stop  offset="0.3876" style="stop-color:#B6DDD3"/>
				<stop  offset="0.4393" style="stop-color:#A3D5CE"/>
				<stop  offset="0.4925" style="stop-color:#98D1CA"/>
				<stop  offset="0.5491" style="stop-color:#94CFC9"/>
				<stop  offset="1" style="stop-color:#4158A3"/>
			</linearGradient>
			<path style="fill:url(#SVGID_00000166662537823265021680000006315936271519707068_);" d="M641,154.9v-120h80l10,10l10,10l5,5
				l-5,5l-10,10l-10,10h20l10,10v60h-30v-50h-40l-10-10l10-10l10-10l10-10h-30v90H641z"/>
			<path class="st3" d="M752.1,155.9h-32v-50h-39.4l-8.6-8.6v58.6h-32v-122h81.4l26,26l-24,24h18l10.6,10.6V155.9z M722.1,153.9h28
				V95.3l-9.4-9.4h-22l26-26l-24-24H642v118h28V95.3l-0.4-0.4l0.4-0.4V63.9h33.4l-31,31l9,9h40.6V153.9z M672,65.9v26.6l26.6-26.6
				H672z"/>
		</g>
		<g>
			
				<linearGradient id="SVGID_00000097476856322133142270000017531886956909596833_" gradientUnits="userSpaceOnUse" x1="816.0576" y1="-20.1451" x2="816.0576" y2="222.3965">
				<stop  offset="0.2737" style="stop-color:#FDFBE9"/>
				<stop  offset="0.2868" style="stop-color:#F3F7E6"/>
				<stop  offset="0.3367" style="stop-color:#D1E8DC"/>
				<stop  offset="0.3876" style="stop-color:#B6DDD3"/>
				<stop  offset="0.4393" style="stop-color:#A3D5CE"/>
				<stop  offset="0.4925" style="stop-color:#98D1CA"/>
				<stop  offset="0.5491" style="stop-color:#94CFC9"/>
				<stop  offset="1" style="stop-color:#4158A3"/>
			</linearGradient>
			<path style="fill:url(#SVGID_00000097476856322133142270000017531886956909596833_);" d="M781.1,154.9l-10-10l-10-10v-80l10-10
				l10-10h70l10,10l10,10v80l-10,10l-10,10H781.1z M841.1,124.9v-60h-50v60H841.1z"/>
			<path class="st3" d="M851.5,155.9h-70.8l-20.6-20.6V54.5l20.6-20.6h70.8l20.6,20.6v80.8L851.5,155.9z M781.5,153.9h69.2
				l19.4-19.4V55.3l-19.4-19.4h-69.2l-19.4,19.4v79.2L781.5,153.9z M842.1,125.9h-52v-62h52V125.9z M792.1,123.9h48v-58h-48V123.9z"
				/>
		</g>
		<g>
			
				<linearGradient id="SVGID_00000027581801047372801070000003843743661478868135_" gradientUnits="userSpaceOnUse" x1="933.5667" y1="-20.1451" x2="933.5667" y2="222.3965">
				<stop  offset="0.2737" style="stop-color:#FDFBE9"/>
				<stop  offset="0.2868" style="stop-color:#F3F7E6"/>
				<stop  offset="0.3367" style="stop-color:#D1E8DC"/>
				<stop  offset="0.3876" style="stop-color:#B6DDD3"/>
				<stop  offset="0.4393" style="stop-color:#A3D5CE"/>
				<stop  offset="0.4925" style="stop-color:#98D1CA"/>
				<stop  offset="0.5491" style="stop-color:#94CFC9"/>
				<stop  offset="1" style="stop-color:#4158A3"/>
			</linearGradient>
			<path style="fill:url(#SVGID_00000027581801047372801070000003843743661478868135_);" d="M881.1,154.9v-120h80l10,10l10,10l5,5
				l-5,5l-10,10l-10,10l-10,10l-10,10l-10,10l-10-10l-10-10l10-10l10-10l10-10h-30v90H881.1z"/>
			<path class="st3" d="M912.1,155.9h-32v-122h81.4l26,26l-56.4,56.4l-19-19V155.9z M882.1,153.9h28V95.3l-0.4-0.4l0.4-0.4V63.9
				h33.4l-31,31l18.6,18.6l53.6-53.6l-24-24h-78.6V153.9z M912.1,65.9v26.6l26.6-26.6H912.1z"/>
		</g>
	</g>
</g>
</svg>
